<svg xmlns="http://www.w3.org/2000/svg" width="309" height="79" fill="none" viewBox="0 0 309 79">
  <defs>
    <linearGradient id="a" x1="-.719999" x2="24.1436" y1="7.62784" y2="61.2524" gradientUnits="userSpaceOnUse">
      <stop offset=".1" stop-color="#FC801D"/>
      <stop offset=".59" stop-color="#FE2857"/>
    </linearGradient>
    <linearGradient id="b" x1="4.22031" x2="62.9211" y1="60.0205" y2="1.31055" gradientUnits="userSpaceOnUse">
      <stop offset=".21" stop-color="#FE2857"/>
      <stop offset=".7" stop-color="#007EFF"/>
    </linearGradient>
  </defs>
  <path fill="#000" fill-rule="evenodd" d="M89.46 46.9622H84v-29.96h5.46v29.96Zm17.15-22.43c1.57 0 2.95.34 4.13 1.03l.01.03c1.18.68 2.11 1.68 2.76 2.97.65 1.29.98 2.84.98 4.64v13.78h-5.03v-13.01c0-1.06-.18-1.96-.54-2.7-.36-.74-.87-1.31-1.54-1.7-.67-.39-1.47-.59-2.4-.59-1 0-1.88.22-2.65.67-.77.45-1.37 1.07-1.79 1.88-.42.81-.63 1.72-.63 2.75v12.69h-5.05v-21.92h4.9v3.21c.63-1.06 1.44-1.92 2.45-2.55 1.25-.79 2.72-1.18 4.4-1.18Zm14.27-4.83h4.7v5.35h5.82l-.02 4.39h-5.82l.02 11.06c0 .6.2 1.1.59 1.49.39.39.89.59 1.49.59h3.72v4.39h-4.73c-1.17 0-2.23-.25-3.16-.75-.93-.5-1.66-1.2-2.18-2.08-.52-.89-.78-1.89-.78-3l-.02-11.71h-3.85l.02-4.39h2.4c.55 0 .98-.16 1.31-.5.33-.33.49-.76.49-1.29v-3.55Zm23.23 4.83c2.16 0 4.08.49 5.76 1.46l-.02-.01c1.69.98 3 2.33 3.93 4.06.93 1.73 1.4 3.71 1.4 5.94v1.22h-17.29c.1 1.01.35 1.94.78 2.77.54 1.05 1.28 1.86 2.23 2.45.95.59 2.02.88 3.22.88 1.06 0 2.01-.21 2.85-.62.84-.41 1.54-.99 2.1-1.73h5.5c-.52 1.36-1.27 2.52-2.25 3.49-.98.97-2.17 1.72-3.57 2.25-1.39.53-2.94.79-4.64.79-2.15 0-4.09-.5-5.81-1.48-1.72-.99-3.08-2.35-4.07-4.11-.99-1.76-1.49-3.78-1.49-5.93s.5-4.1 1.5-5.84c1-1.74 2.37-3.11 4.1-4.1 1.74-.99 3.61-1.49 5.77-1.49Zm-6.118 9.28h12.018c-.12-.67-.31-1.3-.59-1.89-.5-1.06-1.21-1.89-2.13-2.49-.92-.6-1.98-.9-3.18-.9-1.2 0-2.27.29-3.22.87-.95.58-1.69 1.38-2.23 2.4-.328.6171-.538 1.2937-.668 2.01Zm25.918 13.15h-5.05v-29.96h5.05v29.96Zm9.93 0h-5.05v-29.96h5.05v29.96Zm9.92-22.53v13.95h-5.14v-13.95h5.14Zm5.84 15.1c.46-.81.69-1.74.69-2.8l-.01-.01v-19.73h5.33v20.2c0 1.95-.45 3.65-1.34 5.12-.9 1.47-2.15 2.61-3.75 3.42-1.61.81-3.47 1.22-5.58 1.22h-6.33v-4.86h6.23c1.07 0 2.02-.22 2.84-.67.82-.45 1.46-1.08 1.92-1.89Zm-11.17-21.67h5.76v5.01h-5.76v-5.01Zm41.31 29.1h-5.46v-29.96h5.46v29.96Zm17.16-29.96c2.83 0 5.36.65 7.59 1.93v-.02c2.23 1.29 3.97 3.06 5.23 5.33 1.25 2.27 1.88 4.84 1.88 7.73 0 2.89-.62 5.46-1.88 7.73-1.25 2.27-2.99 4.04-5.23 5.33s-4.76 1.93-7.59 1.93h-11.24v-29.96h11.24Zm4.85 24.06c1.4-.85 2.49-2.04 3.25-3.6v.01c.77-1.56 1.15-3.38 1.15-5.48 0-2.1-.39-3.92-1.15-5.48-.76-1.56-1.84-2.76-3.25-3.6-1.41-.84-3.04-1.26-4.89-1.26H231v20.67h5.86c1.85 0 3.49-.41 4.89-1.26Zm34.08-6.85h-14.6v8.03h16.48v4.73h-21.68v-29.96h21.25v4.73h-16.05v7.85h14.6v4.62Zm15.27-17.21h5.76l11.21 29.96h-5.39l-2.55-7.19H288.1l-2.35 7.19h-5.52l10.87-29.96Zm2.37 6.57-4.04 12.01h9.26l-4.3-12.01-.47-1.86-.45 1.86Zm-205.76 50.62c.17-.31.25-.66.25-1.05h.01v-9.15h3.1v9.37c0 .88-.2 1.67-.61 2.38s-.97 1.26-1.68 1.66c-.71.4-1.52.6-2.41.6H84v-2.85h1.95c.4 0 .75-.08 1.05-.25.31-.17.54-.4.71-.71Zm15.26-1.9h-6.5v3.02h7.38v2.7h-10.4v-14.02h10.2v2.71h-7.18v2.97h6.5v2.62Zm6.16-5.52h-4.16v-2.78h11.39v2.78h-4.13v11.23h-3.1v-11.23Zm17.2 3.9c.29.08.56.18.81.31h.01c.57.31 1.02.73 1.34 1.28.32.55.48 1.17.48 1.86 0 .75-.2 1.42-.61 2.01-.41.59-.98 1.05-1.72 1.38-.74.33-1.58.5-2.52.5h-6.35v-14.02H124c.89 0 1.69.16 2.39.47.7.31 1.24.75 1.63 1.31.39.56.58 1.2.58 1.91 0 .62-.15 1.17-.44 1.65-.29.48-.7.86-1.21 1.12-.179.0945-.386.1532-.585.21l-.035.01Zm-2.8-4.33h-2.75v3.45h2.75c.38 0 .72-.08 1.01-.22.3-.14.52-.34.69-.61.17-.27.25-.59.25-.93 0-.34-.09-.64-.25-.89-.17-.26-.4-.45-.69-.59-.29-.14-.63-.21-1.01-.21Zm1.24 9.1c.32-.15.57-.35.75-.62v.02c.18-.27.27-.57.27-.93 0-.36-.09-.68-.27-.96-.18-.28-.44-.5-.76-.65-.33-.15-.7-.23-1.11-.23h-2.87v3.59h2.87c.42 0 .8-.07 1.12-.22Zm16.56-4.67c-.43.67-1.03 1.2-1.81 1.57h-.01c-.14.07-.3.13-.46.19l3.2 5.48h-3.54l-2.84-5.11h-2.02v5.11h-3.1v-14.02h6.14c1.01 0 1.9.18 2.67.55.77.37 1.36.89 1.78 1.56.42.67.63 1.43.63 2.32 0 .89-.21 1.68-.64 2.35Zm-3.56-.61c.32-.16.57-.39.74-.68v.01c.17-.29.26-.63.26-1.03s-.09-.74-.26-1.03c-.17-.29-.42-.51-.74-.67-.32-.15-.7-.23-1.13-.23h-2.79v3.87h2.79c.43 0 .81-.08 1.13-.24Zm5.51 7.85 5.01-14.02h3.36l5.12 14.02h-3.09l-1.06-3.09h-5.2l-.99 3.09h-3.15Zm6.46-10.39-1.61 4.95h3.71l-1.72-4.95-.19-.9-.19.9Zm11.43 10.39h-3.2v-14.02h3.2v14.02Zm5.44-14.02 6.02 9.48h.01v-9.48h2.83v14.02h-3.05l-6-9.48v9.48h-2.83v-14.02h3.02Zm17.78 5.66c.71.13 1.33.4 1.88.79v-.02c.55.4.97.88 1.28 1.47.31.59.46 1.23.46 1.92 0 .85-.23 1.61-.68 2.28-.45.67-1.08 1.2-1.88 1.58-.81.38-1.74.57-2.77.57s-1.95-.19-2.75-.56c-.8-.37-1.43-.9-1.89-1.56-.46-.66-.7-1.44-.71-2.31h3.1c0 .36.1.68.29.96.19.28.46.49.81.64.35.15.75.23 1.18.23.43 0 .8-.07 1.12-.2.32-.13.56-.32.74-.57.18-.25.27-.53.27-.84 0-.39-.12-.71-.36-.97s-.57-.44-.98-.54l-2.52-.52c-.66-.14-1.24-.39-1.74-.75s-.89-.82-1.16-1.36c-.27-.55-.41-1.16-.41-1.83 0-.84.22-1.58.64-2.23.43-.65 1.02-1.16 1.78-1.53.76-.37 1.62-.55 2.6-.55s1.86.18 2.62.53c.76.35 1.36.84 1.79 1.47.43.62.66 1.35.68 2.16h-3.1c0-.3-.09-.57-.25-.81-.17-.24-.4-.42-.69-.55-.29-.14-.64-.2-1.02-.2s-.72.07-1.01.19c-.29.12-.52.3-.68.52-.16.23-.24.49-.24.79 0 .34.11.61.33.84.22.23.52.38.89.47l2.38.49Zm14.38 8.36h-3.2v-14.02h3.2v14.02Zm7.88-14.02c1.33 0 2.53.31 3.59.91 1.06.61 1.9 1.44 2.5 2.51.61 1.06.91 2.27.91 3.59 0 1.32-.31 2.52-.91 3.59-.6 1.07-1.43 1.9-2.5 2.51-1.07.61-2.26.91-3.59.91h-5.47v-14.02h5.47Zm2.01 10.86c.58-.35 1.03-.85 1.34-1.5v-.01c.31-.65.47-1.44.47-2.35 0-.91-.16-1.7-.47-2.35-.31-.65-.76-1.15-1.34-1.5-.58-.35-1.26-.52-2.05-.52h-2.32v8.75h2.32c.79 0 1.47-.17 2.05-.52Zm9.8-2.56v3.02h7.38v2.7h-10.4v-14.02h10.2v2.71h-7.18v2.97h6.5v2.62h-6.5Z" clip-rule="evenodd"/>
  <path fill="#FF8100" d="M15.95 5.82812H4.07C1.82 5.82812 0 7.65784 0 9.89748V21.4057c0 1.1898.519998 2.3196 1.42 3.0895L39.58 57.2c.74.6299 1.68.9799 2.65.9799h11.88c2.25 0 4.07-1.8197 4.07-4.0694V42.6023c0-1.1898-.52-2.3196-1.42-3.0895L18.6 6.80797c-.74-.6299-1.68-.97985-2.65-.97985Z"/>
  <path fill="url(#a)" d="M14.52 5.82812H4.07C1.82 5.82812 0 7.64784 0 9.89748V22.9854c0 .19.01.39.04.5799l5.28 36.9342c.29 2.0097 2 3.4995 4.03 3.4995h15.67c2.25 0 4.07-1.8197 4.07-4.0694V41.3925c0-.4399-.08-.8698-.21-1.2898L18.38 8.60769c-.55-1.65974-2.11-2.77957-3.86-2.77957Z"/>
  <path fill="url(#b)" d="M59.9303.009997h-33.97c-1.63 0-3.1.969848-3.74 2.469613L6.15031 39.9637c-.22.5099-.33 1.0498-.33 1.5997v18.3572c0 2.2496 1.82 4.0693 4.07 4.0693H27.8603c.8 0 1.59-.2399 2.26-.6899l32.07-21.3966c1.13-.7599 1.81-2.0297 1.81-3.3895V4.06936c0-2.24965-1.82-4.06936-4.07-4.06936v.009997Z"/>
  <path fill="#000" d="M52 12H12v40h40V12Z"/>
  <path fill="#fff" d="M25.84 29.3978h-2.98v-9.77h2.98v-2.61H17v2.61h2.98v9.77H17v2.61h8.84v-2.61Zm5.88-12.39v10.07c0 .44-.09.82-.28 1.16-.19.34-.45.6-.79.79-.34.19-.73.28-1.16.28h-2.15v2.7h2.52c.91 0 1.72-.2 2.45-.61.73-.41 1.3-.97 1.71-1.69.41-.72.62-1.53.62-2.43v-10.27h-2.92Zm-14.72 30h16v-3H17v3Z"/>
</svg>
